<?xml version="1.0" standalone="no"?>
<!DOCTYPE svg PUBLIC "-//W3C//DTD SVG 20010904//EN"
 "http://www.w3.org/TR/2001/REC-SVG-20010904/DTD/svg10.dtd">
<svg version="1.0" xmlns="http://www.w3.org/2000/svg"
 width="25px" height="25px" viewBox="0 0 800.000000 786.000000"
 preserveAspectRatio="xMidYMid meet">

<g transform="translate(0.000000,786.000000) scale(0.100000,-0.100000)"
fill="#000000" stroke="none">
<path d="M3926 7801 c-18 -7 -18 -8 -2 -14 23 -9 126 3 126 14 0 11 -97 11
-124 0z"/>
<path d="M4663 7793 c9 -2 23 -2 30 0 6 3 -1 5 -18 5 -16 0 -22 -2 -12 -5z"/>
<path d="M5191 7711 c-20 -13 7 -25 146 -65 283 -81 579 -211 768 -336 39 -25
95 -59 125 -74 78 -41 154 -93 302 -212 72 -57 134 -104 139 -104 5 0 9 11 9
25 0 30 -83 113 -144 144 -60 30 -123 76 -233 169 -54 45 -115 93 -136 105
-20 12 -101 61 -180 109 -161 99 -233 133 -322 153 -34 8 -109 30 -166 48
-108 35 -279 56 -308 38z"/>
<path d="M3010 7633 c-70 -11 -125 -29 -222 -74 -59 -27 -111 -49 -117 -49
-16 0 -220 -100 -261 -128 -19 -13 -75 -44 -125 -68 -49 -24 -117 -59 -150
-78 -33 -18 -71 -37 -85 -41 -40 -12 -161 -94 -215 -145 -29 -27 -86 -64 -130
-85 -113 -54 -224 -122 -268 -165 -22 -20 -57 -48 -79 -61 -148 -88 -237 -176
-302 -299 -59 -113 -42 -117 86 -17 51 39 111 84 134 99 22 16 82 62 134 103
52 41 97 75 101 75 4 0 44 -17 88 -37 61 -29 81 -43 81 -57 0 -12 -45 -66
-108 -130 -102 -106 -249 -266 -264 -290 -28 -42 15 -4 176 156 100 101 202
196 225 212 37 26 44 28 69 16 37 -17 92 -30 92 -20 0 4 -18 19 -40 34 -38 25
-40 28 -27 47 28 40 205 167 410 295 67 42 139 92 161 111 49 44 140 87 236
111 41 11 104 31 140 46 36 15 81 29 100 32 33 5 38 3 67 -38 17 -25 50 -92
72 -149 21 -58 60 -145 84 -195 76 -151 107 -222 107 -243 0 -11 5 -23 10 -26
14 -8 13 79 -1 124 -6 20 -24 70 -40 111 -28 74 -111 338 -130 414 -6 25 -6
42 1 51 13 16 124 51 221 70 41 8 106 22 144 30 278 62 755 79 1070 39 162
-20 338 -53 349 -64 6 -6 28 -10 50 -10 23 0 60 -7 84 -15 24 -8 75 -19 115
-24 139 -18 178 -32 352 -130 88 -50 169 -90 217 -107 97 -34 491 -282 633
-397 84 -68 326 -302 411 -397 145 -162 334 -426 419 -585 37 -68 92 -155 105
-165 3 -3 20 -25 37 -50 54 -80 104 -194 113 -261 5 -35 16 -86 25 -114 8 -27
15 -56 15 -62 0 -23 -37 -14 -69 16 -22 20 -31 24 -31 14 0 -9 -14 -31 -30
-50 -55 -62 -27 -143 56 -159 29 -5 39 -2 59 21 14 14 31 25 37 23 6 -2 24
-60 40 -129 100 -442 119 -903 52 -1309 -43 -263 -50 -280 -106 -280 -16 0
-40 -7 -53 -16 -19 -12 -44 -15 -110 -13 -94 4 -109 13 -95 58 13 41 48 254
66 391 23 188 21 553 -5 750 -21 158 -36 232 -71 350 -13 42 -20 95 -20 147 0
172 -47 295 -199 523 -43 63 -97 151 -120 195 -40 74 -178 281 -233 349 -179
223 -450 480 -554 525 -29 13 -84 70 -84 88 0 8 -13 28 -29 44 -24 23 -38 29
-73 29 -56 0 -64 -7 -72 -58 -8 -55 12 -96 56 -111 28 -10 39 -8 81 14 27 14
52 25 56 25 4 0 30 -19 58 -42 28 -24 66 -54 85 -68 18 -14 101 -92 184 -175
204 -204 345 -394 499 -674 31 -58 87 -150 123 -205 71 -110 128 -223 148
-301 8 -27 14 -95 14 -150 0 -58 6 -124 15 -155 54 -197 75 -369 82 -645 5
-240 -9 -397 -63 -690 -37 -200 -30 -189 -118 -182 -40 3 -79 1 -87 -3 -11 -8
-11 -10 1 -13 101 -31 135 -45 143 -58 7 -11 -6 -53 -47 -154 -31 -77 -66
-167 -76 -200 -31 -96 -294 -517 -415 -664 -206 -249 -441 -465 -695 -636 -63
-42 -140 -101 -170 -131 -57 -55 -127 -93 -220 -118 -65 -17 -206 -68 -237
-84 -12 -7 -33 -12 -48 -12 -14 0 -51 -9 -83 -20 -86 -31 -400 -110 -436 -110
-17 0 -53 -7 -81 -15 -61 -19 -581 -22 -740 -5 -118 13 -310 47 -344 61 -25
10 -25 24 -5 112 10 44 -9 31 -30 -21 -11 -26 -23 -53 -29 -59 -13 -18 -60
-16 -105 3 -65 28 -155 52 -249 68 -110 19 -216 66 -323 143 -41 30 -149 103
-240 163 -208 137 -343 246 -493 395 -195 194 -273 293 -470 593 -70 106 -139
202 -154 215 -82 68 -117 106 -141 152 -24 47 -26 60 -30 210 -3 159 -7 194
-19 182 -9 -9 -18 -145 -17 -249 1 -113 29 -190 93 -257 25 -26 55 -54 67 -62
26 -17 103 -126 174 -244 65 -109 144 -224 223 -325 69 -88 245 -286 284 -320
16 -13 56 -49 90 -81 96 -89 186 -158 379 -290 309 -212 348 -237 399 -255 28
-9 73 -25 100 -35 28 -10 64 -18 80 -19 54 0 282 -83 312 -113 26 -26 -15
-138 -77 -212 -108 -128 -104 -124 -152 -114 -138 29 -198 43 -236 55 -23 8
-52 14 -63 14 -31 0 -12 -18 26 -26 20 -3 38 -10 41 -15 3 -5 14 -9 25 -9 11
0 45 -9 77 -19 31 -11 76 -24 99 -30 55 -15 64 -32 51 -101 -14 -83 -23 -88
-111 -66 -110 28 -346 107 -507 171 -158 62 -438 199 -510 250 -25 17 -67 47
-95 66 -27 20 -77 50 -110 67 -67 36 -318 226 -413 312 -33 30 -81 67 -106 82
-30 18 -60 49 -88 91 -24 36 -90 127 -147 203 -187 249 -237 318 -278 389 -63
108 -138 255 -168 326 -15 35 -35 82 -45 104 -10 22 -28 67 -40 100 -53 142
-80 187 -80 134 0 -62 134 -500 191 -627 16 -35 29 -65 29 -67 0 -2 13 -26 29
-53 16 -27 44 -76 61 -108 80 -144 159 -249 252 -332 116 -103 188 -160 242
-192 74 -44 133 -91 162 -128 16 -21 51 -57 79 -82 27 -25 66 -63 85 -84 126
-140 140 -152 232 -198 51 -26 119 -56 150 -67 31 -10 81 -34 110 -53 64 -42
275 -148 294 -148 7 0 57 -22 111 -50 125 -63 233 -109 275 -116 18 -3 60 -14
93 -25 33 -10 96 -25 140 -34 44 -8 98 -19 120 -24 94 -22 217 -41 272 -41 33
0 93 -9 134 -19 113 -29 222 -40 469 -46 124 -3 243 -10 265 -15 98 -23 265
-4 410 45 39 13 95 29 125 35 30 6 66 19 80 30 l25 18 -30 8 c-16 4 -75 2
-130 -5 -55 -8 -149 -20 -210 -27 -167 -21 -426 -27 -665 -16 -189 10 -268 19
-523 61 -76 13 -87 23 -87 80 0 60 8 88 28 96 8 3 81 -8 161 -24 285 -58 361
-65 691 -66 300 0 376 5 570 40 41 8 98 16 125 20 67 8 291 67 440 115 66 21
158 46 205 55 214 41 299 79 416 187 38 35 112 90 164 122 411 256 761 587
1040 981 35 50 80 108 100 130 66 72 123 172 175 310 12 34 33 81 45 105 35
69 200 544 200 576 0 21 41 42 96 49 63 9 89 -10 80 -59 -7 -36 -62 -204 -105
-321 -61 -168 -219 -499 -289 -610 -118 -185 -196 -294 -238 -335 -52 -50
-184 -217 -184 -232 0 -15 -214 -230 -330 -332 -249 -218 -534 -408 -830 -552
-166 -82 -376 -167 -520 -212 -36 -12 -90 -30 -120 -42 -30 -12 -67 -25 -81
-30 -32 -10 -69 -32 -69 -42 0 -14 35 -8 96 15 33 13 88 27 122 31 34 4 88 16
119 27 32 12 101 26 154 34 62 8 120 23 167 44 40 18 107 43 149 58 100 33
132 52 213 125 68 60 129 101 172 113 13 4 70 30 127 58 83 42 112 62 145 102
23 27 63 70 90 95 27 25 86 81 130 125 57 57 104 92 157 120 64 33 80 46 103
86 15 27 55 79 90 117 34 37 76 88 93 113 17 24 41 53 53 64 12 11 38 47 57
80 19 33 50 78 68 100 49 61 131 204 150 263 9 30 39 82 65 117 27 35 62 89
79 121 18 31 46 75 64 98 48 59 61 84 81 146 10 30 32 91 48 135 35 94 52 156
66 246 5 38 26 101 49 150 43 90 54 154 58 324 1 50 7 110 13 135 6 25 12 76
12 114 0 39 9 102 21 143 20 71 20 92 15 486 -3 227 -9 446 -15 487 -13 102
-38 204 -60 248 -10 21 -24 55 -30 77 -7 22 -30 76 -52 120 -21 44 -48 116
-59 160 -23 96 -61 194 -89 233 -11 16 -35 60 -52 98 -18 38 -42 83 -55 100
-13 17 -38 61 -55 99 -17 37 -43 84 -58 104 -95 125 -142 192 -164 236 -26 51
-115 144 -177 185 -19 13 -41 30 -47 38 -7 9 -15 13 -19 10 -3 -4 26 -48 63
-100 202 -273 337 -507 471 -818 50 -115 123 -319 141 -395 5 -22 21 -83 34
-135 14 -52 37 -153 52 -225 16 -71 36 -168 47 -215 16 -76 18 -119 14 -425
-2 -187 -9 -394 -14 -460 -13 -154 -61 -432 -80 -462 -8 -13 -157 -21 -169 -9
-4 4 3 66 15 139 35 207 45 393 39 687 -8 326 -27 451 -144 930 -8 36 -21 83
-28 105 -7 22 -23 83 -35 135 -30 125 -82 234 -160 330 -21 25 -54 77 -75 115
-41 75 -143 238 -185 295 -186 252 -216 286 -420 489 -251 250 -394 360 -680
526 -148 86 -342 185 -362 185 -13 0 -97 42 -200 98 -99 54 -216 93 -329 108
-60 7 -164 25 -232 39 -237 47 -361 58 -677 59 -162 1 -315 -1 -340 -2 -181
-13 -521 -77 -695 -132 -146 -47 -149 -47 -172 -13 -30 43 -56 119 -49 146 5
20 21 29 93 53 47 16 96 37 107 46 21 17 20 17 -19 16 -22 0 -51 -2 -65 -5z
m-213 -239 c20 -40 33 -79 30 -86 -6 -16 -192 -91 -281 -114 -77 -19 -136 -52
-216 -120 -36 -30 -85 -67 -110 -81 -59 -34 -180 -116 -255 -173 -67 -50 -86
-66 -157 -127 -27 -24 -58 -43 -70 -43 -28 0 -158 77 -158 93 0 21 140 151
235 219 243 174 411 276 628 386 183 91 276 130 299 124 12 -3 33 -32 55 -78z
m4433 -4324 c56 -12 108 -17 131 -14 28 5 40 3 44 -8 9 -22 -68 -247 -174
-511 -95 -237 -140 -325 -195 -376 -15 -14 -41 -48 -58 -75 -135 -216 -356
-479 -563 -670 -166 -153 -248 -218 -432 -341 -87 -59 -176 -126 -198 -150
-49 -53 -139 -116 -197 -138 -24 -9 -95 -27 -158 -41 -63 -14 -171 -46 -240
-71 -235 -87 -263 -95 -419 -120 -86 -14 -190 -32 -231 -40 -205 -39 -745 -45
-981 -10 -173 25 -289 48 -307 61 -15 11 -13 16 13 54 64 91 85 132 100 193
25 98 30 107 67 107 18 0 49 -4 68 -10 161 -46 654 -75 850 -49 41 5 116 13
165 17 50 5 99 14 111 20 12 6 52 14 90 17 38 4 94 15 124 25 30 10 109 30
175 45 66 15 131 33 145 40 14 7 45 16 70 20 25 4 65 18 90 30 25 12 74 30
110 39 100 26 161 58 235 125 37 34 120 98 184 141 369 252 707 605 912 953
42 73 46 79 91 148 53 81 94 165 133 271 103 284 126 338 144 338 4 0 49 -9
101 -20z"/>
<path d="M4496 6591 c-6 -9 40 -21 82 -21 15 0 22 4 17 9 -14 13 -93 22 -99
12z"/>
<path d="M4620 6562 c19 -13 139 -31 315 -47 115 -11 158 -19 238 -49 164 -59
210 -86 307 -181 30 -29 89 -79 131 -112 126 -97 356 -298 419 -368 134 -145
303 -379 381 -526 19 -35 58 -88 87 -119 61 -63 81 -97 112 -195 12 -38 26
-79 30 -90 5 -11 12 -39 15 -62 4 -24 11 -43 17 -43 12 0 2 84 -13 112 -5 9
-9 28 -9 43 0 25 -29 102 -50 135 -6 8 -13 22 -17 30 -3 8 -27 40 -53 70 -26
30 -56 73 -67 95 -54 109 -91 171 -213 350 -51 75 -198 242 -287 325 -85 80
-277 242 -333 280 -19 13 -66 54 -105 90 -105 98 -270 191 -367 206 -24 4 -50
10 -58 14 -20 11 -218 33 -305 35 -38 1 -97 5 -130 9 -40 5 -55 4 -45 -2z"/>
<path d="M4270 6223 c-28 -23 -41 -26 -113 -28 -45 -1 -113 -3 -152 -5 l-70
-3 65 -7 c36 -4 100 -8 142 -9 66 -1 80 -4 98 -23 11 -12 20 -25 20 -30 0 -11
55 -38 78 -38 11 0 36 11 56 25 43 29 96 33 150 10 20 -9 98 -22 174 -30 157
-18 363 -73 495 -134 88 -41 178 -113 204 -165 8 -17 84 -101 167 -186 254
-259 317 -340 484 -621 12 -19 31 -44 43 -55 36 -32 135 -166 161 -219 51
-101 61 -231 25 -317 -11 -26 -13 -69 -10 -172 2 -76 6 -143 10 -149 15 -25
20 27 12 131 -8 101 -7 116 9 150 49 97 54 248 11 352 -28 67 -89 160 -145
220 -23 25 -70 94 -104 153 -92 164 -126 211 -290 411 -19 24 -95 104 -168
178 -73 75 -147 157 -163 182 -45 67 -140 137 -241 177 -28 11 -110 38 -182
60 -108 33 -154 42 -263 49 -73 5 -161 16 -195 24 -35 8 -79 18 -99 21 -21 3
-51 19 -73 40 -48 44 -91 47 -136 8z"/>
<path d="M1573 5950 c-48 -19 -58 -95 -18 -135 33 -34 84 -34 119 1 69 70 -8
171 -101 134z"/>
<path d="M4020 5780 c-124 -12 -315 -50 -346 -70 -24 -15 121 -7 191 11 58 15
294 7 445 -15 58 -8 148 -19 199 -26 91 -10 238 -43 271 -60 8 -5 51 -25 94
-44 247 -113 556 -409 729 -697 31 -52 94 -136 143 -189 106 -116 147 -179
164 -248 14 -62 10 -100 -26 -213 -23 -73 -26 -97 -25 -233 1 -177 -9 -288
-37 -406 -11 -47 -23 -110 -27 -140 -14 -114 -69 -242 -150 -345 -29 -38 -85
-110 -123 -160 -84 -110 -177 -205 -301 -309 -52 -43 -113 -98 -136 -122 -125
-126 -302 -196 -570 -223 -60 -7 -136 -16 -167 -22 -180 -31 -531 -5 -763 56
-162 43 -267 92 -355 164 -25 21 -73 56 -107 79 -189 128 -353 304 -478 512
-53 90 -102 158 -146 205 -61 66 -76 106 -83 230 -4 61 -13 170 -22 243 -28
247 -20 485 23 662 21 87 77 281 102 352 23 66 38 158 24 143 -10 -11 -94
-205 -138 -320 -105 -270 -154 -591 -126 -827 6 -57 13 -170 15 -253 2 -140 4
-154 29 -202 15 -28 48 -78 75 -110 27 -32 80 -108 117 -168 87 -140 192 -280
275 -369 56 -59 193 -170 299 -241 17 -11 68 -45 113 -76 46 -31 115 -69 153
-84 137 -54 344 -98 540 -115 225 -19 363 -11 600 33 44 8 116 20 160 27 102
15 250 73 341 133 40 26 107 84 151 130 44 45 114 113 156 150 91 81 209 219
259 302 20 33 48 71 62 84 38 36 101 137 132 211 14 36 33 79 40 97 8 17 14
40 14 51 0 11 6 35 14 53 7 19 17 62 20 96 4 35 11 75 16 90 6 16 14 73 20
128 6 55 14 132 19 170 6 39 10 110 10 158 1 77 5 98 31 153 38 82 53 171 39
233 -21 101 -57 162 -184 316 -31 39 -68 93 -82 120 -67 133 -232 366 -301
426 -20 17 -76 68 -123 113 -80 76 -109 98 -251 191 -66 42 -193 94 -288 117
-99 25 -198 36 -399 48 -200 11 -205 11 -331 0z"/>
<path d="M540 5730 c-16 -17 -42 -69 -60 -118 -34 -94 -43 -111 -101 -188 -21
-27 -46 -68 -55 -90 -24 -56 -64 -222 -64 -264 0 -53 -26 -142 -61 -211 -17
-34 -37 -97 -45 -142 -25 -139 -31 -428 -9 -405 2 2 16 64 30 138 51 263 122
519 185 670 53 124 110 270 140 355 15 44 43 116 63 160 51 117 53 125 27 125
-12 0 -35 -14 -50 -30z"/>
<path d="M3613 5693 c9 -2 23 -2 30 0 6 3 -1 5 -18 5 -16 0 -22 -2 -12 -5z"/>
<path d="M2815 5335 c-31 -30 -34 -93 -7 -118 26 -24 69 -31 103 -17 37 16 49
37 49 89 0 49 -26 71 -83 71 -27 0 -45 -7 -62 -25z"/>
<path d="M2132 4965 c0 -16 2 -22 5 -12 2 9 2 23 0 30 -3 6 -5 -1 -5 -18z"/>
<path d="M3915 4941 c-23 -9 71 -21 170 -21 73 0 277 -33 350 -56 28 -9 84
-31 125 -49 41 -18 84 -37 96 -41 39 -17 216 -223 238 -279 6 -13 10 -16 13
-7 13 34 -111 212 -181 259 -22 15 -54 39 -69 53 -65 57 -185 108 -312 131
-73 14 -403 22 -430 10z"/>
<path d="M2096 4907 c-8 -31 -7 -39 3 -33 12 8 21 45 11 51 -4 3 -10 -5 -14
-18z"/>
<path d="M2053 4828 c-22 -42 -36 -79 -79 -208 -51 -156 -73 -256 -95 -445
-22 -188 -20 -329 8 -535 12 -90 13 -128 5 -180 -23 -139 -24 -148 -6 -212 25
-92 45 -127 132 -228 95 -113 147 -181 192 -256 98 -162 429 -532 549 -613 31
-21 128 -76 216 -121 88 -46 178 -96 200 -110 113 -77 257 -127 415 -145 63
-7 169 -19 235 -27 234 -26 508 -15 690 27 155 36 241 58 277 71 28 10 61 12
107 8 92 -9 133 11 248 118 51 47 131 112 180 145 48 32 122 86 163 120 84 68
265 252 256 260 -6 6 -70 -48 -126 -107 -40 -42 -267 -215 -320 -244 -43 -24
-94 -62 -186 -142 -114 -99 -114 -99 -229 -100 -74 0 -124 -7 -195 -26 -331
-89 -493 -96 -1020 -43 -208 21 -319 58 -465 155 -38 26 -121 73 -184 104
-178 89 -237 132 -391 288 -186 187 -307 338 -395 493 -15 28 -53 77 -83 110
-194 211 -220 274 -190 467 10 67 9 94 -8 195 -26 164 -27 561 -1 708 31 175
68 325 87 350 4 6 11 26 15 45 4 19 11 40 15 45 13 18 21 65 10 65 -5 0 -17
-15 -27 -32z"/>
<path d="M1572 4735 c0 -16 2 -22 5 -12 2 9 2 23 0 30 -3 6 -5 -1 -5 -18z"/>
<path d="M1528 4592 c-10 -31 -21 -77 -24 -102 -4 -25 -11 -53 -16 -62 -13
-27 -41 -287 -46 -433 -4 -125 2 -204 34 -475 8 -69 19 -163 24 -210 33 -279
58 -356 157 -477 19 -23 37 -57 40 -77 3 -19 13 -42 22 -50 61 -54 94 -94 149
-181 102 -160 160 -236 292 -379 71 -76 437 -407 526 -475 101 -76 251 -147
354 -167 46 -8 127 -33 180 -53 113 -45 227 -76 330 -90 41 -6 109 -15 150
-21 137 -19 333 -28 505 -23 l170 5 37 -36 c47 -46 87 -48 129 -7 60 60 24
141 -62 141 -25 0 -46 -7 -58 -19 -11 -11 -28 -24 -38 -30 -30 -16 -305 -24
-443 -12 -137 11 -404 46 -460 60 -129 32 -204 56 -265 85 -38 18 -92 36 -120
39 -145 17 -327 115 -490 265 -58 53 -137 123 -176 156 -116 97 -305 292 -384
396 -93 122 -205 293 -205 311 0 8 7 23 15 33 23 31 19 89 -8 114 -18 17 -36
22 -74 22 -47 0 -54 3 -88 41 -70 78 -109 195 -134 405 -6 50 -11 108 -11 129
0 20 -9 83 -21 138 -33 161 -48 405 -38 582 10 150 40 368 60 436 6 19 9 45 7
57 -2 15 -9 3 -20 -36z"/>
<path d="M3992 4619 c-40 -5 -92 -17 -115 -28 -53 -24 -115 -76 -103 -88 5 -4
11 -2 13 5 3 6 10 12 18 12 7 0 18 6 24 14 49 58 371 58 508 0 41 -18 63 -18
63 1 0 8 -7 15 -16 15 -9 0 -28 6 -42 14 -15 8 -46 21 -69 30 -36 13 -65 18
-178 30 -16 2 -63 0 -103 -5z"/>
<path d="M6691 4484 c0 -11 3 -14 6 -6 3 7 2 16 -1 19 -3 4 -6 -2 -5 -13z"/>
<path d="M3930 4409 c-77 -26 -108 -45 -163 -98 -48 -45 -97 -125 -97 -157 0
-26 16 -12 57 47 64 95 200 191 287 204 26 4 49 11 52 16 9 16 -79 8 -136 -12z"/>
<path d="M3975 4322 c-121 -45 -198 -111 -247 -210 -30 -62 -32 -75 -33 -167
0 -94 2 -105 33 -167 40 -83 104 -148 180 -185 52 -26 67 -28 167 -28 100 0
115 2 167 28 61 30 135 98 176 162 70 110 69 281 -4 405 -41 70 -83 108 -160
146 -76 37 -202 44 -279 16z"/>
<path d="M4525 4080 c3 -36 9 -86 12 -113 3 -28 -2 -79 -12 -125 -23 -107 -66
-170 -154 -227 -132 -84 -236 -111 -378 -97 -46 4 -83 5 -83 1 0 -3 25 -16 56
-28 126 -48 301 -14 437 83 127 91 167 170 167 325 -1 93 -9 143 -35 206 l-16
40 6 -65z"/>
<path d="M3653 4115 c-3 -9 -3 -18 -1 -21 3 -3 8 4 11 16 6 23 -1 27 -10 5z"/>
<path d="M3094 3878 c3 -18 10 -58 15 -88 11 -65 26 -100 105 -240 155 -273
326 -426 569 -507 112 -37 276 -59 363 -49 35 4 66 1 95 -10 59 -21 173 -20
230 2 53 21 114 62 152 101 41 44 196 238 192 241 -5 5 -53 -38 -104 -93 -155
-169 -195 -198 -301 -217 -47 -9 -71 -8 -127 5 -37 10 -94 17 -126 17 -95 0
-248 19 -319 41 -240 70 -439 234 -573 470 -20 35 -52 89 -70 119 -32 50 -85
192 -85 226 0 8 -5 14 -11 14 -7 0 -9 -12 -5 -32z"/>
<path d="M6292 3760 c0 -14 2 -19 5 -12 2 6 2 18 0 25 -3 6 -5 1 -5 -13z"/>
<path d="M4670 3736 c-5 -15 -10 -31 -10 -36 0 -5 -3 -10 -7 -12 -5 -1 -19
-25 -33 -53 -28 -56 -116 -155 -163 -184 -18 -11 -68 -31 -111 -45 -158 -52
-419 -23 -544 60 -54 35 -222 187 -227 205 -5 16 -35 35 -35 22 0 -26 76 -126
148 -195 139 -132 241 -168 471 -168 130 0 170 9 275 61 112 55 185 146 232
291 23 68 26 110 4 54z"/>
<path d="M1041 3605 c-1 -76 6 -115 20 -115 9 0 3 88 -11 150 -7 29 -8 23 -9
-35z"/>
<path d="M4805 3505 c-31 -30 -32 -75 -3 -124 12 -20 22 -37 23 -38 2 -3 69
22 86 32 25 15 39 50 39 95 0 34 -4 42 -26 50 -46 18 -93 12 -119 -15z"/>
<path d="M1074 3410 c4 -63 18 -148 32 -192 4 -15 8 -17 14 -8 11 18 0 92 -16
111 -8 8 -14 35 -15 60 -1 24 -5 55 -9 69 -6 17 -8 5 -6 -40z"/>
<path d="M2995 3280 c-3 -5 -14 -10 -24 -10 -27 0 -34 -64 -12 -110 12 -27 27
-39 63 -52 46 -17 48 -17 58 1 5 10 21 22 34 25 14 3 23 12 21 19 -2 6 -9 31
-15 55 -8 31 -20 48 -43 62 -35 22 -72 26 -82 10z"/>
<path d="M6070 3029 c-63 -25 -85 -78 -60 -143 8 -23 15 -26 55 -26 57 0 80
12 100 51 19 35 14 57 -22 99 -27 32 -34 34 -73 19z"/>
<path d="M3454 2861 c3 -5 16 -11 28 -14 22 -6 22 -5 4 8 -22 17 -40 20 -32 6z"/>
<path d="M3340 2833 c0 -5 12 -13 26 -20 26 -12 26 -12 9 7 -18 20 -35 26 -35
13z"/>
<path d="M3450 2770 c0 -6 7 -10 15 -10 8 0 15 2 15 4 0 2 -7 6 -15 10 -8 3
-15 1 -15 -4z"/>
<path d="M3688 2763 c6 -2 18 -2 25 0 6 3 1 5 -13 5 -14 0 -19 -2 -12 -5z"/>
<path d="M3788 2733 c6 -2 18 -2 25 0 6 3 1 5 -13 5 -14 0 -19 -2 -12 -5z"/>
<path d="M5856 2643 c-6 -14 -5 -15 5 -6 7 7 10 15 7 18 -3 3 -9 -2 -12 -12z"/>
<path d="M4037 2613 c18 -2 50 -2 70 0 21 2 7 4 -32 4 -38 0 -55 -2 -38 -4z"/>
<path d="M5821 2597 c-13 -21 -12 -21 5 -5 10 10 16 20 13 22 -3 3 -11 -5 -18
-17z"/>
<path d="M5772 2543 c-12 -15 -20 -29 -17 -31 6 -7 34 18 46 40 15 27 -4 22
-29 -9z"/>
<path d="M5520 1750 c-8 -5 -12 -11 -9 -14 2 -3 11 -1 19 4 8 5 12 11 9 14 -2
3 -11 1 -19 -4z"/>
<path d="M5486 1721 c-4 -7 -5 -15 -2 -18 9 -9 19 4 14 18 -4 11 -6 11 -12 0z"/>
<path d="M5457 1673 c-4 -3 -7 -11 -7 -17 0 -6 5 -5 12 2 6 6 9 14 7 17 -3 3
-9 2 -12 -2z"/>
<path d="M5376 1591 c-8 -12 -83 -48 -118 -56 -42 -11 -35 -28 8 -21 40 8 100
39 129 67 17 16 17 19 3 19 -9 0 -19 -4 -22 -9z"/>
<path d="M5070 1503 c-49 -5 -65 -12 -54 -23 11 -11 174 9 174 21 0 9 -50 10
-120 2z"/>
<path d="M2575 750 c3 -5 14 -10 23 -10 15 0 15 2 2 10 -20 13 -33 13 -25 0z"/>
<path d="M2626 722 c12 -11 110 -52 123 -52 23 0 10 20 -16 26 -16 4 -37 13
-48 20 -21 15 -75 20 -59 6z"/>
</g>
</svg>
